<svg version="1.1" id="Layer_1" xmlns="http://www.w3.org/2000/svg" xmlns:xlink="http://www.w3.org/1999/xlink" x="0px" y="0px"
	 width="100%" viewBox="0 0 500 500" enable-background="new 0 0 500 500" xml:space="preserve">
<path fill="#000000" opacity="1.000000" stroke="none" 
	d="
M223.214722,500.621704 
	C150.355362,501.000000 77.710686,500.973602 5.066220,501.086060 
	C1.788552,501.091125 0.894855,500.628448 0.897419,497.068451 
	C1.015499,333.118225 1.016164,169.167923 0.896696,5.217737 
	C0.894007,1.527087 1.759144,0.907799 5.279819,0.910023 
	C169.063416,1.013464 332.847137,1.019131 496.630676,0.888122 
	C500.666199,0.884894 501.085419,2.115908 501.080170,5.628155 
	C500.973297,77.106216 501.000000,148.584473 501.000000,220.531342 
	C497.452637,222.162613 497.624512,219.184418 497.244354,217.338715 
	C496.270538,212.610840 495.596405,207.822922 494.658081,203.081985 
	C491.149811,185.355820 485.291168,168.373978 478.282776,151.366974 
	C473.474365,140.844650 467.992462,131.112015 462.155090,121.166687 
	C456.372620,111.982483 450.137207,103.566353 443.281311,95.173271 
	C436.595947,87.414391 430.268066,79.795631 422.408020,73.152779 
	C416.861328,67.145935 410.649261,62.417381 404.355438,57.258209 
	C397.211914,51.882473 390.334259,46.726685 382.537231,42.291988 
	C376.325806,38.216885 370.117828,34.846447 363.485229,31.511925 
	C357.970184,28.776554 352.761017,26.231655 346.911469,24.216326 
	C340.403015,20.578243 333.376862,19.399591 326.522797,16.662165 
	C319.837067,15.000811 313.701569,12.764613 306.923523,11.367620 
	C299.145599,10.305875 291.935364,8.272640 284.079285,7.537031 
	C277.589905,6.993585 271.498230,6.741435 265.041992,5.693023 
	C259.112366,6.222953 253.624878,6.146334 247.685638,5.729770 
	C240.949722,5.857570 234.695526,6.549878 227.985077,6.761438 
	C220.883621,7.695969 214.186844,8.506102 207.125275,9.618456 
	C200.236496,11.001908 193.753983,12.375357 187.011902,14.340295 
	C179.748016,16.308170 173.023651,18.691532 165.898468,21.039978 
	C158.017853,24.131418 150.544922,27.225449 142.920502,30.877275 
	C136.278534,33.813072 130.475510,37.518570 124.263596,41.213043 
	C116.980301,45.909172 109.903694,50.285900 103.092636,55.664112 
	C96.375595,60.696301 90.281410,65.928856 84.152191,71.657333 
	C77.172386,78.584511 70.161232,85.001312 64.040062,92.754608 
	C55.648083,102.428513 48.650341,112.684471 41.675175,123.443748 
	C36.641426,133.271896 31.403353,142.541397 26.938375,152.236023 
	C22.320490,162.262650 19.903416,172.573547 19.925503,183.607758 
	C20.011843,226.740860 20.343164,269.879272 19.777264,313.005127 
	C19.542992,330.858276 23.362530,347.219360 31.519289,362.909760 
	C34.821869,369.262665 38.847515,375.213013 41.970924,382.099304 
	C48.852192,392.398590 55.482319,402.391754 63.525921,411.787506 
	C69.473335,419.029938 75.732292,425.493835 82.590759,431.865295 
	C88.820297,438.139465 95.337135,443.553223 102.348869,448.921936 
	C108.931908,453.856110 115.253548,458.557648 122.336884,462.780823 
	C130.109772,467.716553 137.921524,471.842010 146.255890,475.764099 
	C153.906708,479.481934 161.619080,482.100128 169.479034,485.331421 
	C175.805679,487.766998 181.995377,489.392120 188.509430,491.279449 
	C195.193100,492.675842 201.458069,494.149963 208.168732,495.527283 
	C212.069687,495.900055 215.492371,496.646057 218.953384,497.143402 
	C220.865433,497.418152 223.084427,497.566040 223.214722,500.621704 
z"/>
<path fill="#000000" opacity="1.000000" stroke="none" 
	d="
M500.656006,283.783691 
	C501.000000,354.928711 500.962891,425.857452 501.105377,496.785889 
	C501.112793,500.477264 500.239014,501.097382 496.722260,501.091370 
	C425.460785,500.969421 354.199005,501.000000 282.468658,501.000000 
	C280.817444,498.399902 282.939880,498.037506 284.507874,497.469971 
	C286.179474,496.864929 287.992645,497.111877 290.147186,496.840210 
	C295.893555,495.599701 301.252838,494.569519 307.004395,493.485229 
	C313.216522,491.999634 319.077209,490.716156 325.173737,488.819122 
	C331.335297,487.128235 336.946503,485.024292 342.848694,482.631653 
	C349.872894,480.180206 356.154114,476.935974 362.951111,473.985657 
	C369.545776,470.536072 375.876740,467.349915 382.087524,463.228271 
	C389.050201,459.198669 395.206177,454.607086 401.739258,449.949829 
	C409.325745,444.475647 415.755402,438.167419 422.901794,432.176575 
	C429.972321,425.830017 435.786133,418.783813 441.964844,411.604675 
	C449.002472,403.309753 455.127655,394.781006 460.920471,385.565125 
	C468.472656,374.364136 474.301727,362.642761 479.884460,350.352844 
	C486.697632,332.844666 492.452850,315.423309 495.565094,297.221863 
	C496.095093,294.122375 496.518768,291.002350 497.158264,287.925232 
	C497.546326,286.058350 497.574371,283.792450 500.656006,283.783691 
z"/>
<path fill="#3432C8" opacity="1.000000" stroke="none" 
	d="
M501.000000,283.531342 
	C498.660400,283.411652 499.169647,285.233276 499.030029,286.399231 
	C496.503357,307.497284 490.805817,327.751373 482.850281,347.409088 
	C482.422516,348.465912 482.092896,349.562439 481.415466,350.844513 
	C478.112457,352.105164 477.760742,349.735199 477.251648,347.887543 
	C476.720032,345.958191 476.957306,343.917786 476.956940,341.924652 
	C476.945374,280.872620 476.940491,219.820572 476.970276,158.768539 
	C476.971649,155.980270 476.492310,153.069519 478.658112,150.214371 
	C484.109528,159.792419 487.852814,170.222946 490.967590,180.872955 
	C494.736633,193.759995 497.954437,206.778641 499.230072,220.200195 
	C499.265839,220.576340 499.849609,220.900421 500.588928,221.124390 
	C501.000000,241.687561 501.000000,262.375122 501.000000,283.531342 
z"/>
<path fill="#1B1A69" opacity="1.000000" stroke="none" 
	d="
M270.328308,500.619781 
	C263.312347,501.000000 256.624725,501.000000 249.468536,501.000000 
	C247.128830,499.230316 246.967850,496.929474 246.966202,494.561157 
	C246.940933,458.360046 246.934265,422.158905 246.973450,385.957794 
	C246.975433,384.123718 247.025940,382.295807 248.249313,380.208252 
	C255.411850,376.563721 262.455139,377.695129 269.922455,379.309204 
	C272.026520,381.520477 272.026825,383.872345 272.029205,386.210449 
	C272.065491,422.154175 272.058807,458.097900 272.030579,494.041626 
	C272.028870,496.199219 272.139374,498.401306 270.328308,500.619781 
z"/>
<path fill="#171658" opacity="1.000000" stroke="none" 
	d="
M223.428467,501.000000 
	C220.337936,497.074310 215.794312,499.868164 212.468170,498.089355 
	C211.434433,497.536530 209.871902,498.078156 208.370026,497.065552 
	C206.038589,495.144714 205.972275,492.802063 205.970261,490.441956 
	C205.940552,455.617035 205.934357,420.792114 205.973740,385.967194 
	C205.975830,384.126862 206.025085,382.292572 207.253586,380.200378 
	C214.417191,376.571289 221.458191,377.690918 228.923615,379.310211 
	C231.026886,381.521912 231.026886,383.873749 231.029236,386.211823 
	C231.065460,422.155121 231.058853,458.098419 231.030548,494.041718 
	C231.028854,496.199280 231.139481,498.401367 229.328323,500.619781 
	C227.285645,501.000000 225.571289,501.000000 223.428467,501.000000 
z"/>
<path fill="#191861" opacity="1.000000" stroke="none" 
	d="
M229.468414,501.000000 
	C228.999435,461.028290 228.998871,421.056580 228.997345,380.626770 
	C235.310165,376.402710 241.827866,377.532532 248.685638,379.764954 
	C248.997711,420.133118 248.998856,460.097900 249.000000,500.531342 
	C242.645599,501.000000 236.291214,501.000000 229.468414,501.000000 
z"/>
<path fill="#1D1C72" opacity="1.000000" stroke="none" 
	d="
M270.460632,501.000000 
	C269.999481,461.028259 269.998993,421.056519 269.997559,380.626709 
	C271.568512,377.954010 273.962036,377.923309 276.265961,378.012970 
	C280.689331,378.185120 285.214722,377.148682 289.923218,379.310059 
	C292.026489,381.521362 292.022827,383.878571 292.025513,386.219147 
	C292.066071,421.716949 292.045319,457.214722 292.034241,492.712524 
	C292.033783,494.205872 292.123718,495.725464 291.227600,497.586395 
	C288.467987,500.498352 284.543915,497.362946 282.013672,500.597046 
	C278.307098,501.000000 274.614166,501.000000 270.460632,501.000000 
z"/>
<path fill="#0E0D36" opacity="1.000000" stroke="none" 
	d="
M146.354950,476.720367 
	C137.608505,473.851624 129.845337,469.506348 122.191925,464.288269 
	C120.783646,462.062988 120.947998,459.870483 120.948158,457.711975 
	C120.958168,321.345276 120.943604,184.978546 120.939430,48.611835 
	C120.939346,45.916988 121.019272,43.280823 122.755814,40.478294 
	C129.079651,36.705738 134.699371,32.543926 141.600891,30.025160 
	C145.505844,29.991331 146.243195,32.657051 146.782120,35.307377 
	C147.280228,37.756878 147.038757,40.281506 147.039139,42.773418 
	C147.048889,105.633224 147.022202,168.493073 147.104004,231.352768 
	C147.108948,235.154495 145.860031,238.945984 147.154236,243.208405 
	C147.858261,245.285858 147.801254,246.944946 147.596298,248.602478 
	C144.339279,274.941437 146.619476,301.385223 146.171432,327.776672 
	C146.070175,333.741425 149.336700,339.297485 149.111023,345.837158 
	C147.750702,348.083344 148.058334,350.104614 148.056610,352.084534 
	C148.022751,390.783020 148.066727,429.481537 148.023422,468.180023 
	C148.020309,470.965942 148.488831,473.868988 146.354950,476.720367 
z"/>
<path fill="#2928A0" opacity="1.000000" stroke="none" 
	d="
M403.272430,450.416870 
	C396.886902,455.665619 390.441986,460.019501 383.381287,464.054230 
	C380.377960,462.386749 380.473450,459.622070 380.465515,456.972778 
	C380.368805,424.672546 380.435669,392.372223 380.435638,360.071899 
	C380.435577,319.284424 380.427246,278.496979 380.416412,237.709503 
	C380.403961,190.756866 380.405457,143.804214 380.391174,96.851578 
	C380.386658,82.031876 380.372192,67.212013 380.410004,52.392544 
	C380.419617,48.622326 379.864044,44.675747 382.685699,41.089142 
	C390.771362,44.947407 397.614502,50.366779 404.919556,55.658829 
	C404.976135,183.887360 405.087616,311.827728 405.039062,439.768066 
	C405.037750,443.240387 405.510406,446.804047 403.272430,450.416870 
z"/>
<path fill="#0C0B2D" opacity="1.000000" stroke="none" 
	d="
M122.705231,40.188324 
	C123.008759,178.657242 123.006813,317.263153 122.980339,455.869049 
	C122.979866,458.339600 123.447060,460.880096 122.148033,463.646362 
	C114.789864,460.476685 108.478477,455.641998 102.139961,450.309509 
	C100.916573,447.840210 100.945007,445.509369 100.944901,443.168518 
	C100.938995,315.706024 100.975677,188.243515 100.934006,60.781010 
	C100.933456,59.117981 100.821281,57.438736 101.754227,55.418289 
	C107.888199,48.838070 115.783829,45.474682 122.705231,40.188324 
z"/>
<path fill="#272698" opacity="1.000000" stroke="none" 
	d="
M382.840302,40.594807 
	C381.732819,50.522217 382.345245,60.205448 382.395660,69.883667 
	C382.443390,79.055969 382.157257,88.229530 382.138977,97.402779 
	C382.120331,106.758392 382.272003,116.114220 382.306702,125.470108 
	C382.340149,134.479187 382.319305,143.488480 382.322418,152.497665 
	C382.325775,162.177887 382.350830,171.858154 382.326385,181.538300 
	C382.303223,190.708588 382.202240,199.878677 382.183197,209.048965 
	C382.163788,218.407776 382.198669,227.766693 382.216797,237.125565 
	C382.234558,246.295090 382.289246,255.464676 382.276031,264.634155 
	C382.262573,273.990936 382.164764,283.347565 382.143463,292.704376 
	C382.121796,302.199249 382.151367,311.694275 382.153259,321.189209 
	C382.155090,330.384338 382.150238,339.579437 382.148438,348.774567 
	C382.146576,358.269501 382.127167,367.764496 382.148102,377.259399 
	C382.168701,386.616486 382.253143,395.973480 382.267303,405.330566 
	C382.281158,414.500092 382.051514,423.674347 382.276611,432.837982 
	C382.526062,442.992859 381.372528,453.183044 383.009521,463.713684 
	C377.555054,468.777527 370.948730,471.478088 364.343719,474.889954 
	C360.369873,473.231079 361.002289,469.796631 360.994598,466.738251 
	C360.925842,439.327515 360.965942,411.916565 360.956482,384.505707 
	C360.952606,373.209137 360.988800,361.912506 360.930328,350.615997 
	C360.920990,348.811157 361.241943,346.937805 359.950256,344.839478 
	C359.435608,343.068207 359.373291,341.705688 359.766785,340.437469 
	C362.681427,331.043976 361.936127,321.377136 361.963715,311.772552 
	C362.001862,298.489105 361.738983,285.199799 362.057678,271.923859 
	C362.261932,263.414093 361.050476,255.065338 360.472778,246.174103 
	C361.870911,240.488281 361.938354,235.165298 361.940216,229.851532 
	C361.962524,166.419235 361.943939,102.986931 361.977448,39.554642 
	C361.979004,36.602974 361.423004,33.519821 363.629028,30.489754 
	C370.563812,32.920849 376.537811,36.746449 382.840302,40.594807 
z"/>
<path fill="#090925" opacity="1.000000" stroke="none" 
	d="
M101.679512,55.125076 
	C102.849838,57.702312 103.025124,60.489124 103.024490,63.341637 
	C102.996155,190.049026 103.001961,316.756409 102.981865,443.463806 
	C102.981552,445.437134 103.370621,447.464264 102.245911,449.697815 
	C94.487923,445.654144 88.374229,439.649536 82.143463,433.299805 
	C81.156937,430.277832 80.926102,427.494781 80.926796,424.639801 
	C80.954659,309.950775 80.950157,195.261780 80.941498,80.572769 
	C80.941269,77.560326 80.884689,74.564415 82.747009,71.420029 
	C88.460686,64.978714 94.762970,59.945274 101.679512,55.125076 
z"/>
<path fill="#2C2AA9" opacity="1.000000" stroke="none" 
	d="
M403.334778,450.776794 
	C403.005768,321.367035 403.000275,191.896225 403.023132,62.425430 
	C403.023499,60.339451 402.368225,58.018585 404.761414,56.158325 
	C411.168732,60.851013 417.471466,65.481262 422.894592,71.586426 
	C424.609283,74.590401 425.121643,77.407402 424.360626,80.522766 
	C423.806793,82.790009 424.054657,85.164986 424.054474,87.494080 
	C424.046204,198.554764 424.060638,309.615448 423.989990,420.676117 
	C423.987579,424.489349 425.125214,428.271149 424.183899,432.584473 
	C417.316254,438.957520 410.488586,444.836639 403.334778,450.776794 
z"/>
<path fill="#2E2CB1" opacity="1.000000" stroke="none" 
	d="
M424.440613,432.933533 
	C422.244019,430.355621 421.997223,427.244751 421.997345,424.064484 
	C422.000946,310.768219 421.990417,197.471985 422.043060,84.175758 
	C422.044830,80.380310 422.678436,76.585152 423.028076,72.336868 
	C431.138214,77.897079 437.106812,85.972572 443.954926,93.645149 
	C443.972595,143.413620 444.068451,192.878723 444.051605,242.343765 
	C444.033386,295.806976 444.044647,349.270203 444.051666,402.733429 
	C444.052032,405.563751 444.171448,408.400330 443.181641,411.629791 
	C437.859131,419.809387 431.195251,426.207855 424.440613,432.933533 
z"/>
<path fill="#07071D" opacity="1.000000" stroke="none" 
	d="
M82.698677,71.144745 
	C82.993790,189.807114 82.998810,308.628479 82.980217,427.449829 
	C82.979958,429.090881 82.682434,430.731873 82.252808,432.690369 
	C74.900475,427.363251 68.838264,420.738464 63.154247,413.301697 
	C62.151379,411.546265 61.512661,410.041138 61.627499,408.286835 
	C62.335739,397.467255 61.923061,386.634125 61.927921,375.808533 
	C61.968990,284.326324 61.952595,192.844116 61.950661,101.361900 
	C61.950600,98.532486 61.791073,95.689308 62.844048,92.466797 
	C68.430954,84.127769 75.661789,77.943748 82.698677,71.144745 
z"/>
<path fill="#050514" opacity="1.000000" stroke="none" 
	d="
M62.697189,92.154694 
	C64.164879,93.968613 64.001900,96.154221 64.001854,98.318703 
	C63.999527,199.967789 63.988407,301.616882 64.055000,403.265930 
	C64.056999,406.313843 63.184601,409.171783 62.999329,412.578857 
	C56.546432,407.139618 52.144875,399.672913 47.163269,392.666168 
	C45.341881,390.104340 43.780205,387.357910 42.048077,384.348877 
	C41.026421,380.604004 40.938717,377.127197 40.939564,373.620483 
	C40.958694,294.397308 40.946507,215.174149 40.974720,135.950989 
	C40.976261,131.628952 40.617695,127.306267 40.981651,122.491974 
	C47.230305,111.455589 54.303226,101.515808 62.697189,92.154694 
z"/>
<path fill="#302EB9" opacity="1.000000" stroke="none" 
	d="
M443.351654,411.949097 
	C441.891388,410.134552 441.994781,407.959717 441.994904,405.789246 
	C442.000793,304.000854 441.996704,202.212479 442.023224,100.424110 
	C442.023773,98.338623 441.368439,96.018112 443.761993,94.159332 
	C451.123657,101.827538 457.165344,110.426903 462.956451,119.635559 
	C462.474274,122.597931 463.086334,125.255737 463.084625,127.906540 
	C463.031342,210.511124 463.045013,293.115723 463.064972,375.720337 
	C463.065735,378.895477 462.923157,382.038147 462.175293,385.629456 
	C457.037384,395.470306 450.587616,403.804474 443.351654,411.949097 
z"/>
<path fill="#03030B" opacity="1.000000" stroke="none" 
	d="
M40.736801,122.216797 
	C42.771091,124.213371 43.007420,126.823082 43.007114,129.526291 
	C42.997738,212.464951 42.999966,295.403595 42.996983,378.342255 
	C42.996922,380.001190 43.145939,381.685883 42.165108,383.619720 
	C35.584637,376.253113 31.801012,367.007080 27.158634,358.232086 
	C18.950466,342.717010 17.742249,326.101562 17.889452,308.953491 
	C18.235058,268.692780 18.519257,228.417343 17.764614,188.167801 
	C17.425465,170.078979 23.151501,154.308273 31.144737,138.856384 
	C34.035488,133.268219 37.354805,127.901764 40.736801,122.216797 
z"/>
<path fill="#3230C0" opacity="1.000000" stroke="none" 
	d="
M462.356689,385.945618 
	C460.891968,384.134674 460.994720,381.960114 460.994873,379.789795 
	C461.000977,295.334198 460.996033,210.878601 461.023285,126.423004 
	C461.023956,124.337814 460.368134,122.017265 462.763306,120.160019 
	C469.172150,129.267029 474.288055,139.100494 479.009949,149.524139 
	C479.026398,215.196716 479.007660,280.509308 479.031036,345.821869 
	C479.031647,347.536835 478.297180,349.571259 480.723846,350.927612 
	C476.185364,363.276215 469.996765,374.834381 462.356689,385.945618 
z"/>
<path fill="#10103E" opacity="1.000000" stroke="none" 
	d="
M146.899414,244.046448 
	C144.146362,242.477646 145.038147,239.932892 145.036652,237.731339 
	C144.991653,171.533310 145.000549,105.335243 144.998322,39.137177 
	C144.998215,35.996136 145.413971,32.734810 142.279877,30.168171 
	C148.859894,25.498247 156.657791,23.031029 164.601990,20.007492 
	C168.626556,21.739235 167.999405,25.178499 168.005936,28.240952 
	C168.072556,59.511135 168.043930,90.781456 168.035172,122.051735 
	C168.033875,126.702278 168.250031,131.361038 167.780304,136.439758 
	C168.442139,138.756271 167.807465,140.458084 167.109787,142.148117 
	C163.283600,151.416779 162.846222,160.691879 167.002686,169.996918 
	C167.678299,171.509415 168.139343,173.097397 167.882736,175.215820 
	C166.511475,178.145782 167.012146,180.860229 167.035995,183.474655 
	C167.128357,193.597839 166.553741,203.731094 167.391083,214.252274 
	C167.190079,216.626663 166.090347,218.070694 164.568451,219.137024 
	C157.227386,224.280563 153.061386,231.693283 149.712326,239.706894 
	C149.080124,241.219650 148.659164,242.856232 146.899414,244.046448 
z"/>
<path fill="#252490" opacity="1.000000" stroke="none" 
	d="
M363.692505,29.993725 
	C364.004517,97.562592 363.994171,164.958664 364.018066,232.354721 
	C364.019653,236.869232 363.344543,241.253784 361.998108,245.974747 
	C359.834290,246.053360 359.301331,244.369476 358.726532,242.860260 
	C355.860107,235.334137 351.621857,228.704407 345.985443,222.957932 
	C344.924500,221.876282 344.086975,220.661560 344.103760,218.621704 
	C344.030609,216.357269 343.940063,214.530807 343.940765,212.697083 
	C343.963898,152.413177 343.935120,92.129272 343.987488,31.845409 
	C343.990173,28.778414 343.213776,25.412409 346.596191,22.961611 
	C352.990204,24.117399 358.159393,27.027876 363.692505,29.993725 
z"/>
<path fill="#1B1A68" opacity="1.000000" stroke="none" 
	d="
M246.669434,4.494851 
	C252.701721,4.109105 258.390930,4.077477 264.546265,4.097112 
	C266.997833,5.885441 267.028046,8.238598 267.029480,10.593028 
	C267.067230,72.746620 267.045044,134.900208 267.053070,197.053802 
	C267.053284,198.734268 266.727234,200.364243 266.522339,202.496948 
	C265.214355,209.108932 259.161133,212.038208 253.105881,208.824692 
	C248.525681,206.394012 244.945679,202.632111 244.304260,196.570679 
	C245.346558,193.012405 244.927109,189.833771 244.929062,186.697983 
	C244.965088,128.981201 244.943283,71.264412 244.980698,13.547646 
	C244.982605,10.607024 244.374207,7.512896 246.669434,4.494851 
z"/>
<path fill="#242389" opacity="1.000000" stroke="none" 
	d="
M346.885223,22.650993 
	C345.330078,24.752293 346.030731,27.036383 346.029510,29.120348 
	C345.993103,90.331894 346.003693,151.543472 345.984833,212.755051 
	C345.984161,214.894241 346.365936,217.093292 345.197601,219.519409 
	C344.288269,220.445435 343.413116,220.453003 342.706024,220.058075 
	C337.413971,217.102264 331.929413,214.537018 326.477417,211.902557 
	C325.744720,211.548523 325.281708,210.799591 324.765076,209.661469 
	C323.621124,204.115829 323.787659,198.959015 324.602661,193.393341 
	C325.097687,190.795853 326.552673,189.167831 327.775543,187.414581 
	C334.661469,177.541687 334.769623,167.869217 328.130066,157.881348 
	C326.766510,155.830154 324.935791,154.059723 324.208984,151.191528 
	C325.230072,134.908386 324.495605,118.996941 324.617218,103.094994 
	C324.770569,83.037697 324.705170,62.978771 324.637299,42.920658 
	C324.613770,35.961899 324.826324,29.001421 324.503784,22.044127 
	C324.395569,19.709955 324.213593,17.338097 326.698425,15.417274 
	C333.517365,17.693872 340.634674,18.566227 346.885223,22.650993 
z"/>
<path fill="#1D1C6F" opacity="1.000000" stroke="none" 
	d="
M265.631287,204.458801 
	C265.149597,202.451675 265.009796,200.455826 265.009491,198.459930 
	C264.999542,133.993149 265.003021,69.526375 265.008484,4.603986 
	C271.092682,4.555003 277.209229,4.598098 283.603394,6.057825 
	C286.581299,8.506024 286.015411,11.642822 286.019562,14.575505 
	C286.085266,60.760117 285.980499,106.944832 286.086792,153.129456 
	C286.087921,153.628021 286.100281,154.126038 286.215637,155.058868 
	C287.197998,157.320190 286.753479,159.125793 285.984680,160.791641 
	C283.361755,166.474808 283.330292,172.422501 284.265198,178.393921 
	C284.907013,182.493347 284.001221,185.824173 281.188354,188.918518 
	C277.726410,192.726837 274.423920,196.688095 271.117157,200.639084 
	C269.733582,202.292252 268.297058,203.945206 265.631287,204.458801 
z"/>
<path fill="#191860" opacity="1.000000" stroke="none" 
	d="
M246.549347,4.089756 
	C247.008347,66.265404 247.016586,128.390091 246.947784,190.514694 
	C246.945404,192.663010 248.073486,195.264969 245.070312,197.010391 
	C242.071381,197.378220 240.815536,195.455109 239.453766,193.816864 
	C235.725449,189.331680 232.199585,184.681396 228.428055,180.229980 
	C226.380066,177.812820 224.990997,175.004837 226.347412,171.944107 
	C231.200607,160.992920 230.412369,150.232452 225.786560,139.487885 
	C225.525116,138.880615 225.500214,138.189178 225.443268,137.128387 
	C226.161301,112.302368 225.621216,87.868629 225.711548,63.437019 
	C225.778534,45.317295 225.776520,27.198172 225.694077,9.078796 
	C225.688705,7.896555 225.773056,6.746193 226.752060,5.437296 
	C233.381241,4.919377 239.668793,3.349090 246.549347,4.089756 
z"/>
<path fill="#1F1E78" opacity="1.000000" stroke="none" 
	d="
M286.561310,157.116211 
	C283.201111,155.585754 284.027161,152.814560 284.025543,150.435699 
	C283.993073,102.645729 284.003235,54.855724 284.008728,6.610208 
	C291.765106,5.482079 298.949219,8.789348 306.795105,9.659843 
	C307.821411,11.654442 308.052795,13.435994 308.051910,15.297112 
	C308.032166,56.927452 308.072205,98.557816 308.017761,140.188156 
	C308.016235,141.353912 307.987549,142.520264 307.600891,144.094193 
	C307.037537,145.621384 306.421692,146.758408 305.283386,147.044556 
	C298.266693,148.808472 292.769135,153.270187 286.561310,157.116211 
z"/>
<path fill="#111040" opacity="1.000000" stroke="none" 
	d="
M146.208038,477.305908 
	C145.988358,435.608826 145.983719,394.172791 146.028885,352.736786 
	C146.031326,350.508820 145.255722,347.985138 147.963730,346.086792 
	C150.111801,345.967316 150.883820,347.340118 151.572845,348.626343 
	C155.389542,355.750854 160.962906,361.393402 166.755524,366.864868 
	C168.313446,368.336395 170.018295,369.724670 170.480347,372.460144 
	C171.155609,374.830353 171.037079,376.834320 171.037796,378.823090 
	C171.049896,412.044952 171.056992,445.266785 171.025101,478.488617 
	C171.022583,481.109344 171.452805,483.849854 169.347687,486.542358 
	C161.445084,483.894012 153.709335,481.286682 146.208038,477.305908 
z"/>
<path fill="#212081" opacity="1.000000" stroke="none" 
	d="
M306.208618,146.145676 
	C305.997192,102.696655 305.992737,59.593468 306.018921,16.490303 
	C306.020111,14.519773 305.616730,12.490494 306.789368,10.267484 
	C313.711151,10.680158 319.938843,12.996477 326.630493,15.071852 
	C325.079865,20.284443 326.849915,25.537422 326.527588,30.734943 
	C326.117584,37.346367 326.622131,44.010143 326.591644,50.650703 
	C326.561890,57.132664 326.092865,63.622009 326.295441,70.093124 
	C326.523499,77.378967 326.487793,84.641983 326.287628,91.925964 
	C326.109741,98.398720 326.546509,104.886230 326.602661,111.368164 
	C326.658844,117.850449 326.818756,124.346909 326.467621,130.811859 
	C326.264587,134.550034 326.423950,138.319122 326.480591,142.000336 
	C326.527679,145.058411 326.407837,147.819122 325.038971,150.860321 
	C324.183746,151.505249 323.482300,151.826462 322.891266,151.527313 
	C317.688019,148.893936 311.885254,148.249725 306.208618,146.145676 
z"/>
<path fill="#171658" opacity="1.000000" stroke="none" 
	d="
M226.591736,5.087647 
	C227.948593,16.174767 227.536758,27.213833 227.323944,38.273869 
	C227.096100,50.115021 227.838806,61.971500 227.880814,73.822273 
	C227.913620,83.078590 227.409332,92.335793 227.358688,101.593773 
	C227.323181,108.083763 227.962204,114.587532 227.717575,121.063156 
	C227.514664,126.435127 228.366425,131.904984 226.613556,137.669769 
	C226.348068,138.134903 226.118088,138.189468 226.027069,138.101028 
	C219.650711,131.905914 211.728745,127.780861 204.663544,121.864975 
	C203.790482,119.351395 203.969772,117.168564 203.968277,115.012047 
	C203.945679,82.195107 203.944839,49.378147 203.971588,16.561214 
	C203.973740,13.927500 203.576447,11.184069 205.688141,8.487681 
	C212.733627,7.094163 219.450623,6.067635 226.591736,5.087647 
z"/>
<path fill="#151450" opacity="1.000000" stroke="none" 
	d="
M207.698792,379.773865 
	C207.999344,418.767395 208.002121,457.366425 208.009766,496.422424 
	C201.413544,496.576599 195.178177,494.437958 188.403381,492.975098 
	C186.298691,490.679840 185.935089,488.133911 185.936935,485.394501 
	C185.959274,452.184326 185.942001,418.974091 185.966995,385.763885 
	C185.968491,383.775116 185.886765,381.763763 187.093719,379.483215 
	C194.076569,376.699585 200.748138,377.459259 207.698792,379.773865 
z"/>
<path fill="#131247" opacity="1.000000" stroke="none" 
	d="
M167.677383,138.124390 
	C165.282318,136.403900 166.033539,134.081009 166.030975,132.011368 
	C165.987686,97.044853 166.005417,62.078255 165.986786,27.111687 
	C165.985641,24.968599 166.343124,22.766739 165.142242,20.336058 
	C171.481903,16.943785 178.350204,14.998305 185.630768,13.122659 
	C188.129822,14.791554 188.015869,17.196264 188.015167,19.511127 
	C188.005005,53.098747 188.171921,86.686531 187.866974,120.710815 
	C187.319504,122.738434 186.874817,124.517319 185.319061,125.270782 
	C178.728790,128.462509 173.635544,133.614853 167.677383,138.124390 
z"/>
<path fill="#15144F" opacity="1.000000" stroke="none" 
	d="
M186.555298,123.746864 
	C186.122482,87.012062 186.063873,50.519585 186.010651,13.569681 
	C192.130753,10.352391 198.793594,9.704132 205.616180,8.124608 
	C206.010849,46.073105 206.005051,84.025513 205.998703,122.440506 
	C205.238678,123.918938 204.110794,124.302055 202.974091,124.165779 
	C197.627151,123.524742 192.268768,124.655022 186.555298,123.746864 
z"/>
<path fill="#131248" opacity="1.000000" stroke="none" 
	d="
M187.807617,378.665985 
	C188.001572,416.659363 188.003067,454.320923 188.009079,492.441101 
	C181.884064,491.073883 175.558243,489.861237 169.379028,486.977661 
	C169.016724,448.542725 169.019180,410.181274 169.034119,371.342957 
	C169.899734,370.120209 170.941238,370.124481 171.804672,370.587128 
	C176.982391,373.361328 182.759415,374.910583 187.807617,378.665985 
z"/>
<path fill="#252490" opacity="1.000000" stroke="none" 
	d="
M360.521912,343.779846 
	C363.351532,345.715973 363.005005,348.446259 363.004547,351.096222 
	C362.997925,390.022400 362.995117,428.948608 363.013275,467.874786 
	C363.014282,470.015961 362.657410,472.215240 363.844604,474.644104 
	C357.753815,478.300415 351.366882,481.287689 344.357086,483.748169 
	C341.444763,481.693604 341.995361,478.708405 341.991058,475.950897 
	C341.941284,444.035614 341.969879,412.120270 341.956512,380.204926 
	C341.955322,377.381256 342.064209,374.551270 341.590942,371.315125 
	C340.894836,368.514954 341.783569,366.623779 343.557831,365.153412 
	C349.415710,360.299133 353.570129,354.177368 356.967102,347.463165 
	C357.711212,345.992493 358.470062,344.482697 360.521912,343.779846 
z"/>
<path fill="#1F1E7A" opacity="1.000000" stroke="none" 
	d="
M291.496216,498.035278 
	C289.333466,496.237183 290.032166,493.955322 290.029816,491.870056 
	C289.988220,454.941650 289.999084,418.013214 289.997681,380.626709 
	C295.626282,376.262512 301.607819,377.880402 307.972168,379.352081 
	C310.030426,381.583588 310.027924,383.928558 310.030243,386.262756 
	C310.063690,420.141541 310.056702,454.020325 310.033417,487.899109 
	C310.031921,490.058685 310.111481,492.245667 308.345428,494.469940 
	C302.708221,496.219086 297.396515,497.545471 291.496216,498.035278 
z"/>
<path fill="#232288" opacity="1.000000" stroke="none" 
	d="
M341.495667,368.708160 
	C344.786774,370.422089 343.972626,373.184937 343.975098,375.566589 
	C344.012238,411.351532 344.002319,447.136475 344.005798,483.377625 
	C338.467407,486.438751 332.733704,488.506378 326.409698,490.059631 
	C323.463623,487.965088 323.989105,484.984558 323.984711,482.221619 
	C323.936157,451.635895 323.962341,421.050049 323.954895,390.464264 
	C323.954071,387.139954 323.993927,383.815033 323.848755,380.039490 
	C323.923615,378.233093 324.184204,376.757355 325.394440,376.121552 
	C330.560669,373.407288 335.223846,369.633423 341.495667,368.708160 
z"/>
<path fill="#212081" opacity="1.000000" stroke="none" 
	d="
M324.476013,377.281921 
	C326.090240,379.826843 326.009094,382.324677 326.008392,384.828766 
	C325.998840,419.602356 326.005737,454.375977 326.014404,489.626984 
	C320.514832,492.541748 314.580658,493.431732 308.405029,494.859009 
	C308.006195,456.922852 308.002472,419.003754 307.997925,380.626556 
	C312.932373,376.895782 318.484161,376.792175 324.476013,377.281921 
z"/>
<path fill="#FEFEFE" opacity="1.000000" stroke="none" 
	d="
M325.130829,377.334015 
	C319.548279,378.520508 314.342438,380.119049 308.434448,380.093414 
	C302.305511,380.118134 296.613922,380.067810 290.459534,380.093048 
	C283.638824,380.117950 277.280914,380.067322 270.459778,380.092651 
	C263.305420,380.117706 256.614288,380.066803 249.459854,380.092102 
	C242.638580,380.117401 236.280594,380.066437 229.459488,380.092102 
	C222.305252,380.117432 215.614120,380.066193 208.459778,380.091644 
	C201.608643,379.838074 195.168427,380.306030 188.425049,378.955994 
	C181.496994,377.284851 175.482483,374.457611 169.396698,370.930267 
	C160.395218,364.267517 153.256363,356.422852 148.583405,346.114746 
	C144.482574,335.608551 143.839401,324.932068 143.982910,314.063568 
	C144.200027,297.621216 144.026382,281.173431 143.988632,264.728058 
	C143.973297,258.046356 145.031631,251.508545 146.498444,244.592712 
	C149.979568,232.938721 155.316879,223.012894 165.791061,216.215347 
	C167.631180,212.616974 170.873413,211.679184 174.008240,210.602158 
	C178.556534,209.039520 183.138748,207.609787 188.384918,207.449402 
	C196.871567,205.719955 205.158966,206.414520 214.070328,206.127899 
	C211.027603,201.612411 208.047012,198.113159 205.042419,194.632034 
	C203.579254,192.936844 201.556610,192.916779 199.567566,192.816559 
	C196.275513,192.650681 192.926071,193.037689 189.389862,191.696381 
	C179.314392,189.638199 171.489532,185.050842 167.092453,175.349258 
	C162.189606,165.341232 160.580124,155.423904 164.125839,144.926590 
	C164.870590,142.721649 165.936310,140.762589 167.195221,138.454803 
	C172.146606,131.746277 177.771439,126.378609 185.901047,123.691757 
	C192.461258,121.755188 198.778351,121.280327 205.577942,122.928787 
	C214.198685,125.725517 221.099808,130.315887 226.262405,137.879944 
	C232.719299,149.521912 233.525986,161.076691 227.476028,172.760742 
	C226.522659,174.601944 227.000916,175.802109 228.142197,177.194504 
	C233.484268,183.712051 238.781143,190.266617 244.379761,196.969208 
	C246.664093,199.739197 248.606628,202.393448 250.674026,204.946594 
	C254.244049,209.355408 261.064850,209.402817 265.090576,204.779785 
	C270.886810,197.969009 276.479248,191.426941 282.259094,185.054916 
	C283.777039,183.381485 283.508636,181.942078 282.984955,180.113922 
	C280.730133,172.242798 281.375183,164.722672 286.078613,157.406525 
	C291.209595,151.115799 297.164734,146.747787 305.606262,145.893875 
	C312.586273,145.593018 318.715302,146.968628 324.400787,151.090256 
	C337.603149,165.052490 338.154083,178.607452 326.197632,191.957108 
	C321.762604,199.070618 314.850769,200.489395 307.759918,200.319565 
	C303.240967,200.211349 300.561646,201.873810 297.889404,205.864456 
	C302.072906,206.521835 305.853241,206.015091 309.576630,206.260559 
	C315.018372,206.619354 320.598358,206.403152 325.724426,209.807693 
	C332.419312,212.685242 338.862518,215.299042 344.700836,219.792862 
	C352.887695,227.003952 358.472626,235.546234 361.577515,246.086212 
	C366.229156,273.962585 363.109589,301.755157 363.903412,329.447052 
	C364.036407,334.085571 362.306458,338.570526 360.916565,343.393555 
	C356.052216,353.023590 350.952606,362.084229 342.012238,368.639954 
	C336.286346,371.507355 331.491577,375.608826 325.130829,377.334015 
z"/>
<path fill="#131248" opacity="1.000000" stroke="none" 
	d="
M166.753662,175.173920 
	C172.627930,182.149384 179.051224,188.085663 188.627274,190.260956 
	C192.372482,196.180725 191.476639,202.115677 189.340118,208.422668 
	C181.138260,209.797913 173.593597,211.805176 166.329041,215.872131 
	C163.988892,203.468735 165.421097,190.915390 165.029831,178.408340 
	C164.991837,177.193939 165.406143,176.141647 166.753662,175.173920 
z"/>
<path fill="#212081" opacity="1.000000" stroke="none" 
	d="
M325.982361,209.599838 
	C315.592163,207.624084 304.995636,207.959122 293.430206,208.014267 
	C296.335571,204.627167 298.682281,201.955048 300.950745,199.218033 
	C301.982086,197.973663 303.191132,198.084732 304.555542,198.343857 
	C312.466339,199.846390 319.269257,197.387070 325.679871,192.344345 
	C325.993591,197.868134 325.991241,203.497864 325.982361,209.599838 
z"/>
<path fill="#15144E" opacity="1.000000" stroke="none" 
	d="
M205.311676,346.764771 
	C201.376053,347.764771 197.717682,347.670227 194.097214,347.280792 
	C184.825882,346.283478 178.873871,340.024170 178.832321,330.789276 
	C178.724701,306.870239 178.740814,282.949799 178.889099,259.031006 
	C178.945709,249.898346 185.924515,243.223999 195.107956,243.016296 
	C198.096222,242.948700 201.087555,243.016174 204.536743,243.095032 
	C206.994751,244.884155 207.025757,247.230011 207.028336,249.574326 
	C207.061691,279.948822 207.065155,310.323334 207.025772,340.697845 
	C207.023178,342.698059 206.996628,344.703888 205.311676,346.764771 
z"/>
<path fill="#1F1E78" opacity="1.000000" stroke="none" 
	d="
M283.664764,243.506836 
	C291.685059,243.119812 299.373077,243.071976 307.524719,243.091187 
	C309.985901,244.876434 310.026306,247.222168 310.028900,249.570999 
	C310.062378,279.982086 310.064240,310.393188 310.027527,340.804291 
	C310.025116,342.807037 309.992523,344.810791 308.335541,346.853943 
	C300.937134,347.265991 293.921356,347.350281 286.454163,347.297607 
	C283.929016,345.047089 284.001373,342.362305 283.976105,339.684631 
	C283.856781,327.047058 284.217621,314.406952 283.588379,301.361389 
	C282.526917,296.985382 283.047119,292.841522 281.903259,288.460632 
	C282.012573,275.692352 281.936066,263.377533 281.988647,251.063019 
	C281.999207,248.588852 281.692688,246.028595 283.664764,243.506836 
z"/>
<path fill="#292885" opacity="1.000000" stroke="none" 
	d="
M308.304352,347.327332 
	C307.968323,312.812897 307.983734,278.444061 307.993744,243.616745 
	C324.080383,240.971649 330.232483,251.898834 329.961151,263.671967 
	C329.475037,284.765381 329.827271,305.878052 329.826660,326.982697 
	C329.826233,341.586304 323.459534,347.746429 308.304352,347.327332 
z"/>
<path fill="#171657" opacity="1.000000" stroke="none" 
	d="
M205.455139,347.302673 
	C205.003220,312.802643 205.000702,278.443390 204.997086,243.626175 
	C210.687790,243.119186 216.379578,243.070160 222.534027,243.094498 
	C224.994919,244.884201 225.025803,247.230057 225.028381,249.574402 
	C225.061676,279.949249 225.065262,310.324097 225.025787,340.698944 
	C225.023193,342.699219 224.996307,344.705017 223.310928,346.765686 
	C217.304871,347.256409 211.604706,347.349915 205.455139,347.302673 
z"/>
<path fill="#18185E" opacity="1.000000" stroke="none" 
	d="
M223.455338,347.302246 
	C223.002899,312.803192 223.000732,278.443512 222.997620,243.625824 
	C228.354904,243.119003 233.713150,243.070160 239.533813,243.093643 
	C241.954712,244.885010 242.073715,247.217712 241.993622,249.542618 
	C241.829636,254.302628 242.639404,259.110626 241.134674,264.233063 
	C240.746719,264.920166 240.594650,265.318390 240.326904,265.415710 
	C232.118484,268.399872 231.544662,274.940735 231.857162,282.373260 
	C232.253418,291.798248 231.895203,301.252136 231.977203,310.692963 
	C232.053040,319.427277 233.270935,321.023163 241.536285,323.656830 
	C242.172119,323.859436 242.737335,324.208099 243.572617,324.959534 
	C245.571854,332.357666 246.029922,339.388580 243.305695,346.772705 
	C236.639252,347.255798 230.272446,347.348663 223.455338,347.302246 
z"/>
<path fill="#1D1C6F" opacity="1.000000" stroke="none" 
	d="
M283.533569,243.095291 
	C283.998047,256.261444 284.007172,269.355225 283.991241,282.449005 
	C283.988831,284.422424 284.264709,286.442719 283.137390,288.699097 
	C281.553986,289.653961 280.394623,288.939453 279.291077,288.251343 
	C273.714691,284.774323 267.876099,281.740173 262.340210,278.198120 
	C260.552032,277.053955 258.617889,275.996368 258.195709,273.173859 
	C257.753601,264.669922 258.050323,256.582977 258.036316,248.498322 
	C258.033447,246.836349 258.272369,245.198685 259.677338,243.493774 
	C267.688843,243.117737 275.379425,243.070343 283.533569,243.095291 
z"/>
<path fill="#1D1C6F" opacity="1.000000" stroke="none" 
	d="
M283.478088,299.857178 
	C286.730103,300.625488 285.965576,302.973480 285.972351,304.822266 
	C286.022797,318.615295 286.000580,332.408569 286.001953,346.681213 
	C279.636932,347.252899 273.271118,347.345154 266.454437,347.299377 
	C264.095520,345.205872 263.987671,342.734222 263.987762,340.218994 
	C263.988037,331.946381 263.977997,323.673767 263.979736,314.975647 
	C263.852325,312.733673 264.656311,311.290802 266.097900,310.370087 
	C271.726746,306.775024 277.208221,302.940369 283.478088,299.857178 
z"/>
<path fill="#1B1A68" opacity="1.000000" stroke="none" 
	d="
M264.659637,312.659851 
	C266.824921,316.690186 265.875854,320.757751 265.957916,324.706635 
	C266.106781,331.869110 266.001068,339.036865 266.002625,346.681885 
	C258.638031,347.254913 251.272446,347.348511 243.456467,347.302521 
	C243.003601,340.128021 243.001114,333.093170 242.998718,325.598389 
	C243.065674,323.845306 243.889847,323.028564 244.885941,322.432098 
	C250.369934,319.148163 255.884415,315.914795 261.498077,312.856049 
	C262.368835,312.381592 263.343353,312.177765 264.659637,312.659851 
z"/>
<path fill="#1B1A68" opacity="1.000000" stroke="none" 
	d="
M259.534821,243.092804 
	C259.660156,253.266083 260.719238,263.394409 259.105652,273.780121 
	C257.949493,274.832947 256.925842,274.779114 256.052612,274.331421 
	C250.711823,271.593018 245.289337,269.000275 240.117493,265.376801 
	C240.000320,258.039276 239.999664,251.060623 239.997635,243.623962 
	C246.354645,243.117462 252.713028,243.068970 259.534821,243.092804 
z"/>
<path fill="#191853" opacity="1.000000" stroke="none" 
	d="
M189.415558,208.814728 
	C188.986877,202.939682 188.984818,197.120483 188.981079,190.859924 
	C191.601471,190.749115 194.430939,191.876160 196.806046,191.257874 
	C203.410736,189.538528 206.805603,193.135941 210.071091,197.807693 
	C212.400009,201.139587 215.095673,204.215118 218.014893,207.892868 
	C208.213501,208.696304 198.965454,207.417435 189.415558,208.814728 
z"/>
<path fill="#FDFDFD" opacity="1.000000" stroke="none" 
	d="
M239.622681,265.100403 
	C246.703430,266.667877 252.212494,270.730774 258.465393,274.032471 
	C265.214233,277.878998 271.643280,281.637543 278.012390,285.495026 
	C279.559296,286.431946 280.908936,287.694672 282.660278,288.948090 
	C284.855377,292.294403 285.973022,295.577789 283.925049,299.562653 
	C278.505219,305.308960 271.731995,308.534088 265.141418,312.589111 
	C257.846466,316.848022 250.727020,320.815002 243.303192,324.960205 
	C233.869858,325.702240 230.331665,322.590851 230.178864,313.221832 
	C229.973679,300.640686 230.011642,288.054291 230.070160,275.470734 
	C230.099823,269.093964 232.670685,266.358490 239.622681,265.100403 
z"/>
</svg>